<?xml version="1.0" encoding="utf-8" standalone="no"?>
<!DOCTYPE svg PUBLIC "-//W3C//DTD SVG 1.1//EN"
  "http://www.w3.org/Graphics/SVG/1.1/DTD/svg11.dtd">
<svg xmlns:xlink="http://www.w3.org/1999/xlink" width="460.8pt" height="345.6pt" viewBox="0 0 460.8 345.6" xmlns="http://www.w3.org/2000/svg" version="1.1">
 <metadata>
  <rdf:RDF xmlns:dc="http://purl.org/dc/elements/1.1/" xmlns:cc="http://creativecommons.org/ns#" xmlns:rdf="http://www.w3.org/1999/02/22-rdf-syntax-ns#">
   <cc:Work>
    <dc:type rdf:resource="http://purl.org/dc/dcmitype/StillImage"/>
    <dc:date>2023-09-03T00:01:39.566307</dc:date>
    <dc:format>image/svg+xml</dc:format>
    <dc:creator>
     <cc:Agent>
      <dc:title>Matplotlib v3.5.1, https://matplotlib.org/</dc:title>
     </cc:Agent>
    </dc:creator>
   </cc:Work>
  </rdf:RDF>
 </metadata>
 <defs>
  <style type="text/css">*{stroke-linejoin: round; stroke-linecap: butt}</style>
 </defs>
 <g id="figure_1">
  <g id="patch_1">
   <path d="M 0 345.6 
L 460.8 345.6 
L 460.8 0 
L 0 0 
z
" style="fill: #ffffff"/>
  </g>
  <g id="axes_1">
   <g id="patch_2">
    <path d="M 57.6 307.584 
L 414.72 307.584 
L 414.72 41.472 
L 57.6 41.472 
z
" style="fill: #ffffff"/>
   </g>
   <g id="matplotlib.axis_1">
    <g id="xtick_1">
     <g id="line2d_1">
      <defs>
       <path id="mbf6357ab14" d="M 0 0 
L 0 3.5 
" style="stroke: #000000; stroke-width: 0.8"/>
      </defs>
      <g>
       <use xlink:href="#mbf6357ab14" x="83.108571" y="307.584" style="stroke: #000000; stroke-width: 0.8"/>
      </g>
     </g>
     <g id="text_1">
      <!-- 1.1 -->
      <g transform="translate(75.157009 322.182437)scale(0.1 -0.1)">
       <defs>
        <path id="DejaVuSans-31" d="M 794 531 
L 1825 531 
L 1825 4091 
L 703 3866 
L 703 4441 
L 1819 4666 
L 2450 4666 
L 2450 531 
L 3481 531 
L 3481 0 
L 794 0 
L 794 531 
z
" transform="scale(0.015625)"/>
        <path id="DejaVuSans-2e" d="M 684 794 
L 1344 794 
L 1344 0 
L 684 0 
L 684 794 
z
" transform="scale(0.015625)"/>
       </defs>
       <use xlink:href="#DejaVuSans-31"/>
       <use xlink:href="#DejaVuSans-2e" x="63.623047"/>
       <use xlink:href="#DejaVuSans-31" x="95.410156"/>
      </g>
     </g>
    </g>
    <g id="xtick_2">
     <g id="line2d_2">
      <g>
       <use xlink:href="#mbf6357ab14" x="138.763636" y="307.584" style="stroke: #000000; stroke-width: 0.8"/>
      </g>
     </g>
     <g id="text_2">
      <!-- 1.2 -->
      <g transform="translate(130.812074 322.182437)scale(0.1 -0.1)">
       <defs>
        <path id="DejaVuSans-32" d="M 1228 531 
L 3431 531 
L 3431 0 
L 469 0 
L 469 531 
Q 828 903 1448 1529 
Q 2069 2156 2228 2338 
Q 2531 2678 2651 2914 
Q 2772 3150 2772 3378 
Q 2772 3750 2511 3984 
Q 2250 4219 1831 4219 
Q 1534 4219 1204 4116 
Q 875 4013 500 3803 
L 500 4441 
Q 881 4594 1212 4672 
Q 1544 4750 1819 4750 
Q 2544 4750 2975 4387 
Q 3406 4025 3406 3419 
Q 3406 3131 3298 2873 
Q 3191 2616 2906 2266 
Q 2828 2175 2409 1742 
Q 1991 1309 1228 531 
z
" transform="scale(0.015625)"/>
       </defs>
       <use xlink:href="#DejaVuSans-31"/>
       <use xlink:href="#DejaVuSans-2e" x="63.623047"/>
       <use xlink:href="#DejaVuSans-32" x="95.410156"/>
      </g>
     </g>
    </g>
    <g id="xtick_3">
     <g id="line2d_3">
      <g>
       <use xlink:href="#mbf6357ab14" x="194.418701" y="307.584" style="stroke: #000000; stroke-width: 0.8"/>
      </g>
     </g>
     <g id="text_3">
      <!-- 1.3 -->
      <g transform="translate(186.467139 322.182437)scale(0.1 -0.1)">
       <defs>
        <path id="DejaVuSans-33" d="M 2597 2516 
Q 3050 2419 3304 2112 
Q 3559 1806 3559 1356 
Q 3559 666 3084 287 
Q 2609 -91 1734 -91 
Q 1441 -91 1130 -33 
Q 819 25 488 141 
L 488 750 
Q 750 597 1062 519 
Q 1375 441 1716 441 
Q 2309 441 2620 675 
Q 2931 909 2931 1356 
Q 2931 1769 2642 2001 
Q 2353 2234 1838 2234 
L 1294 2234 
L 1294 2753 
L 1863 2753 
Q 2328 2753 2575 2939 
Q 2822 3125 2822 3475 
Q 2822 3834 2567 4026 
Q 2313 4219 1838 4219 
Q 1578 4219 1281 4162 
Q 984 4106 628 3988 
L 628 4550 
Q 988 4650 1302 4700 
Q 1616 4750 1894 4750 
Q 2613 4750 3031 4423 
Q 3450 4097 3450 3541 
Q 3450 3153 3228 2886 
Q 3006 2619 2597 2516 
z
" transform="scale(0.015625)"/>
       </defs>
       <use xlink:href="#DejaVuSans-31"/>
       <use xlink:href="#DejaVuSans-2e" x="63.623047"/>
       <use xlink:href="#DejaVuSans-33" x="95.410156"/>
      </g>
     </g>
    </g>
    <g id="xtick_4">
     <g id="line2d_4">
      <g>
       <use xlink:href="#mbf6357ab14" x="250.073766" y="307.584" style="stroke: #000000; stroke-width: 0.8"/>
      </g>
     </g>
     <g id="text_4">
      <!-- 1.4 -->
      <g transform="translate(242.122204 322.182437)scale(0.1 -0.1)">
       <defs>
        <path id="DejaVuSans-34" d="M 2419 4116 
L 825 1625 
L 2419 1625 
L 2419 4116 
z
M 2253 4666 
L 3047 4666 
L 3047 1625 
L 3713 1625 
L 3713 1100 
L 3047 1100 
L 3047 0 
L 2419 0 
L 2419 1100 
L 313 1100 
L 313 1709 
L 2253 4666 
z
" transform="scale(0.015625)"/>
       </defs>
       <use xlink:href="#DejaVuSans-31"/>
       <use xlink:href="#DejaVuSans-2e" x="63.623047"/>
       <use xlink:href="#DejaVuSans-34" x="95.410156"/>
      </g>
     </g>
    </g>
    <g id="xtick_5">
     <g id="line2d_5">
      <g>
       <use xlink:href="#mbf6357ab14" x="305.728831" y="307.584" style="stroke: #000000; stroke-width: 0.8"/>
      </g>
     </g>
     <g id="text_5">
      <!-- 1.5 -->
      <g transform="translate(297.777269 322.182437)scale(0.1 -0.1)">
       <defs>
        <path id="DejaVuSans-35" d="M 691 4666 
L 3169 4666 
L 3169 4134 
L 1269 4134 
L 1269 2991 
Q 1406 3038 1543 3061 
Q 1681 3084 1819 3084 
Q 2600 3084 3056 2656 
Q 3513 2228 3513 1497 
Q 3513 744 3044 326 
Q 2575 -91 1722 -91 
Q 1428 -91 1123 -41 
Q 819 9 494 109 
L 494 744 
Q 775 591 1075 516 
Q 1375 441 1709 441 
Q 2250 441 2565 725 
Q 2881 1009 2881 1497 
Q 2881 1984 2565 2268 
Q 2250 2553 1709 2553 
Q 1456 2553 1204 2497 
Q 953 2441 691 2322 
L 691 4666 
z
" transform="scale(0.015625)"/>
       </defs>
       <use xlink:href="#DejaVuSans-31"/>
       <use xlink:href="#DejaVuSans-2e" x="63.623047"/>
       <use xlink:href="#DejaVuSans-35" x="95.410156"/>
      </g>
     </g>
    </g>
    <g id="xtick_6">
     <g id="line2d_6">
      <g>
       <use xlink:href="#mbf6357ab14" x="361.383896" y="307.584" style="stroke: #000000; stroke-width: 0.8"/>
      </g>
     </g>
     <g id="text_6">
      <!-- 1.6 -->
      <g transform="translate(353.432334 322.182437)scale(0.1 -0.1)">
       <defs>
        <path id="DejaVuSans-36" d="M 2113 2584 
Q 1688 2584 1439 2293 
Q 1191 2003 1191 1497 
Q 1191 994 1439 701 
Q 1688 409 2113 409 
Q 2538 409 2786 701 
Q 3034 994 3034 1497 
Q 3034 2003 2786 2293 
Q 2538 2584 2113 2584 
z
M 3366 4563 
L 3366 3988 
Q 3128 4100 2886 4159 
Q 2644 4219 2406 4219 
Q 1781 4219 1451 3797 
Q 1122 3375 1075 2522 
Q 1259 2794 1537 2939 
Q 1816 3084 2150 3084 
Q 2853 3084 3261 2657 
Q 3669 2231 3669 1497 
Q 3669 778 3244 343 
Q 2819 -91 2113 -91 
Q 1303 -91 875 529 
Q 447 1150 447 2328 
Q 447 3434 972 4092 
Q 1497 4750 2381 4750 
Q 2619 4750 2861 4703 
Q 3103 4656 3366 4563 
z
" transform="scale(0.015625)"/>
       </defs>
       <use xlink:href="#DejaVuSans-31"/>
       <use xlink:href="#DejaVuSans-2e" x="63.623047"/>
       <use xlink:href="#DejaVuSans-36" x="95.410156"/>
      </g>
     </g>
    </g>
   </g>
   <g id="matplotlib.axis_2">
    <g id="ytick_1">
     <g id="line2d_7">
      <defs>
       <path id="m26f6d65153" d="M 0 0 
L -3.5 0 
" style="stroke: #000000; stroke-width: 0.8"/>
      </defs>
      <g>
       <use xlink:href="#m26f6d65153" x="57.6" y="297.195557" style="stroke: #000000; stroke-width: 0.8"/>
      </g>
     </g>
     <g id="text_7">
      <!-- 234 -->
      <g transform="translate(31.5125 300.994775)scale(0.1 -0.1)">
       <use xlink:href="#DejaVuSans-32"/>
       <use xlink:href="#DejaVuSans-33" x="63.623047"/>
       <use xlink:href="#DejaVuSans-34" x="127.246094"/>
      </g>
     </g>
    </g>
    <g id="ytick_2">
     <g id="line2d_8">
      <g>
       <use xlink:href="#m26f6d65153" x="57.6" y="255.931044" style="stroke: #000000; stroke-width: 0.8"/>
      </g>
     </g>
     <g id="text_8">
      <!-- 236 -->
      <g transform="translate(31.5125 259.730263)scale(0.1 -0.1)">
       <use xlink:href="#DejaVuSans-32"/>
       <use xlink:href="#DejaVuSans-33" x="63.623047"/>
       <use xlink:href="#DejaVuSans-36" x="127.246094"/>
      </g>
     </g>
    </g>
    <g id="ytick_3">
     <g id="line2d_9">
      <g>
       <use xlink:href="#m26f6d65153" x="57.6" y="214.666531" style="stroke: #000000; stroke-width: 0.8"/>
      </g>
     </g>
     <g id="text_9">
      <!-- 238 -->
      <g transform="translate(31.5125 218.46575)scale(0.1 -0.1)">
       <defs>
        <path id="DejaVuSans-38" d="M 2034 2216 
Q 1584 2216 1326 1975 
Q 1069 1734 1069 1313 
Q 1069 891 1326 650 
Q 1584 409 2034 409 
Q 2484 409 2743 651 
Q 3003 894 3003 1313 
Q 3003 1734 2745 1975 
Q 2488 2216 2034 2216 
z
M 1403 2484 
Q 997 2584 770 2862 
Q 544 3141 544 3541 
Q 544 4100 942 4425 
Q 1341 4750 2034 4750 
Q 2731 4750 3128 4425 
Q 3525 4100 3525 3541 
Q 3525 3141 3298 2862 
Q 3072 2584 2669 2484 
Q 3125 2378 3379 2068 
Q 3634 1759 3634 1313 
Q 3634 634 3220 271 
Q 2806 -91 2034 -91 
Q 1263 -91 848 271 
Q 434 634 434 1313 
Q 434 1759 690 2068 
Q 947 2378 1403 2484 
z
M 1172 3481 
Q 1172 3119 1398 2916 
Q 1625 2713 2034 2713 
Q 2441 2713 2670 2916 
Q 2900 3119 2900 3481 
Q 2900 3844 2670 4047 
Q 2441 4250 2034 4250 
Q 1625 4250 1398 4047 
Q 1172 3844 1172 3481 
z
" transform="scale(0.015625)"/>
       </defs>
       <use xlink:href="#DejaVuSans-32"/>
       <use xlink:href="#DejaVuSans-33" x="63.623047"/>
       <use xlink:href="#DejaVuSans-38" x="127.246094"/>
      </g>
     </g>
    </g>
    <g id="ytick_4">
     <g id="line2d_10">
      <g>
       <use xlink:href="#m26f6d65153" x="57.6" y="173.402019" style="stroke: #000000; stroke-width: 0.8"/>
      </g>
     </g>
     <g id="text_10">
      <!-- 240 -->
      <g transform="translate(31.5125 177.201237)scale(0.1 -0.1)">
       <defs>
        <path id="DejaVuSans-30" d="M 2034 4250 
Q 1547 4250 1301 3770 
Q 1056 3291 1056 2328 
Q 1056 1369 1301 889 
Q 1547 409 2034 409 
Q 2525 409 2770 889 
Q 3016 1369 3016 2328 
Q 3016 3291 2770 3770 
Q 2525 4250 2034 4250 
z
M 2034 4750 
Q 2819 4750 3233 4129 
Q 3647 3509 3647 2328 
Q 3647 1150 3233 529 
Q 2819 -91 2034 -91 
Q 1250 -91 836 529 
Q 422 1150 422 2328 
Q 422 3509 836 4129 
Q 1250 4750 2034 4750 
z
" transform="scale(0.015625)"/>
       </defs>
       <use xlink:href="#DejaVuSans-32"/>
       <use xlink:href="#DejaVuSans-34" x="63.623047"/>
       <use xlink:href="#DejaVuSans-30" x="127.246094"/>
      </g>
     </g>
    </g>
    <g id="ytick_5">
     <g id="line2d_11">
      <g>
       <use xlink:href="#m26f6d65153" x="57.6" y="132.137506" style="stroke: #000000; stroke-width: 0.8"/>
      </g>
     </g>
     <g id="text_11">
      <!-- 242 -->
      <g transform="translate(31.5125 135.936725)scale(0.1 -0.1)">
       <use xlink:href="#DejaVuSans-32"/>
       <use xlink:href="#DejaVuSans-34" x="63.623047"/>
       <use xlink:href="#DejaVuSans-32" x="127.246094"/>
      </g>
     </g>
    </g>
    <g id="ytick_6">
     <g id="line2d_12">
      <g>
       <use xlink:href="#m26f6d65153" x="57.6" y="90.872993" style="stroke: #000000; stroke-width: 0.8"/>
      </g>
     </g>
     <g id="text_12">
      <!-- 244 -->
      <g transform="translate(31.5125 94.672212)scale(0.1 -0.1)">
       <use xlink:href="#DejaVuSans-32"/>
       <use xlink:href="#DejaVuSans-34" x="63.623047"/>
       <use xlink:href="#DejaVuSans-34" x="127.246094"/>
      </g>
     </g>
    </g>
    <g id="ytick_7">
     <g id="line2d_13">
      <g>
       <use xlink:href="#m26f6d65153" x="57.6" y="49.60848" style="stroke: #000000; stroke-width: 0.8"/>
      </g>
     </g>
     <g id="text_13">
      <!-- 246 -->
      <g transform="translate(31.5125 53.407699)scale(0.1 -0.1)">
       <use xlink:href="#DejaVuSans-32"/>
       <use xlink:href="#DejaVuSans-34" x="63.623047"/>
       <use xlink:href="#DejaVuSans-36" x="127.246094"/>
      </g>
     </g>
    </g>
   </g>
   <g id="line2d_14">
    <path d="M 73.832727 53.568 
L 74.760312 54.933669 
L 75.687896 55.617077 
L 76.615481 55.007163 
L 77.543065 58.105718 
L 78.470649 56.663001 
L 79.398234 58.240601 
L 80.325818 57.307037 
L 81.253403 60.687458 
L 82.180987 58.809487 
L 83.108571 60.518914 
L 84.036156 60.35707 
L 85.891325 64.153233 
L 86.818909 62.579297 
L 87.746494 66.5499 
L 88.674078 64.973478 
L 89.601662 65.775636 
L 90.529247 65.202618 
L 91.456831 68.250207 
L 92.384416 66.827024 
L 93.312 68.575749 
L 94.239584 67.600335 
L 95.167169 70.310187 
L 96.094753 68.911611 
L 98.877506 72.301475 
L 99.805091 73.807061 
L 100.732675 72.502726 
L 101.66026 76.476977 
L 102.587844 74.384397 
L 103.515429 75.985732 
L 104.443013 74.85016 
L 105.370597 77.875307 
L 106.298182 79.851322 
L 107.225766 77.434032 
L 108.153351 78.677564 
L 109.080935 79.397815 
L 110.008519 80.849572 
L 110.936104 79.970963 
L 111.863688 81.289664 
L 112.791273 85.000206 
L 113.718857 83.314833 
L 114.646442 84.257689 
L 115.574026 83.382094 
L 116.50161 87.454964 
L 117.429195 85.222477 
L 120.211948 88.553807 
L 121.139532 89.625201 
L 122.067117 88.409566 
L 123.922286 89.996236 
L 125.777455 92.715564 
L 126.705039 90.915254 
L 127.632623 95.307251 
L 128.560208 92.962125 
L 130.415377 95.264184 
L 131.342961 94.677245 
L 132.270545 98.007466 
L 133.19813 96.336735 
L 134.125714 97.498079 
L 135.053299 98.367807 
L 135.980883 99.784334 
L 136.908468 100.775005 
L 137.836052 99.382915 
L 138.763636 100.614141 
L 139.691221 105.357221 
L 140.618805 102.297688 
L 141.54639 104.066971 
L 142.473974 102.863406 
L 143.401558 104.054461 
L 144.329143 107.850144 
L 145.256727 105.993303 
L 146.184312 106.641238 
L 147.111896 107.005915 
L 148.039481 109.183427 
L 148.967065 110.846248 
L 149.894649 108.446594 
L 150.822234 109.812927 
L 151.749818 113.93773 
L 152.677403 110.611198 
L 153.604987 112.201277 
L 154.532571 111.402467 
L 155.460156 112.197032 
L 156.38774 116.39543 
L 157.315325 114.280976 
L 158.242909 115.247652 
L 159.170494 116.945933 
L 160.098078 115.830753 
L 161.025662 119.367967 
L 161.953247 117.14369 
L 162.880831 118.300597 
L 163.808416 119.103912 
L 164.736 119.755482 
L 165.663584 121.116855 
L 166.591169 122.704045 
L 167.518753 121.086918 
L 168.446338 122.586713 
L 169.373922 127.079072 
L 170.301506 124.097589 
L 171.229091 125.381655 
L 172.156675 124.038986 
L 173.08426 124.984481 
L 174.011844 128.573157 
L 174.939429 126.908006 
L 175.867013 127.88749 
L 179.577351 132.794952 
L 180.504935 130.100021 
L 181.432519 131.632859 
L 182.360104 136.56009 
L 183.287688 133.696499 
L 184.215273 135.23248 
L 185.142857 134.149952 
L 186.070442 134.734903 
L 186.998026 138.698518 
L 187.92561 136.28163 
L 188.853195 137.232422 
L 189.780779 138.496592 
L 190.708364 137.837375 
L 191.635948 141.222332 
L 192.563532 141.991405 
L 193.491117 139.951923 
L 196.27387 143.511899 
L 197.201455 144.021551 
L 198.129039 145.819474 
L 199.056623 144.111187 
L 199.984208 144.956519 
L 200.911792 149.341833 
L 201.839377 146.813132 
L 202.766961 148.113468 
L 203.694545 148.660708 
L 204.62213 148.500073 
L 205.549714 149.139634 
L 206.477299 152.218544 
L 207.404883 150.349058 
L 208.332468 151.484087 
L 209.260052 152.314298 
L 210.187636 152.517007 
L 211.115221 154.735833 
L 212.042805 155.844537 
L 212.97039 154.110104 
L 213.897974 155.036814 
L 214.825558 155.571489 
L 215.753143 161.571139 
L 216.680727 158.367141 
L 217.608312 158.919204 
L 218.535896 160.772042 
L 219.463481 159.034398 
L 220.391065 159.85419 
L 221.318649 164.172405 
L 222.246234 161.442036 
L 223.173818 162.369881 
L 224.101403 163.489581 
L 225.028987 162.927053 
L 225.956571 166.031869 
L 226.884156 167.398363 
L 227.81174 165.280297 
L 228.739325 165.879402 
L 229.666909 167.462412 
L 230.594494 168.033392 
L 231.522078 168.812957 
L 232.449662 170.116237 
L 233.377247 171.772454 
L 234.304831 170.38276 
L 235.232416 170.494993 
L 236.16 175.270607 
L 237.087584 173.083893 
L 238.942753 174.25164 
L 239.870338 175.488549 
L 240.797922 174.771535 
L 241.725506 178.140058 
L 242.653091 179.562858 
L 243.580675 176.936006 
L 244.50826 177.271534 
L 245.435844 178.790629 
L 246.363429 178.83988 
L 247.291013 180.995403 
L 248.218597 181.814468 
L 249.146182 183.718495 
L 250.073766 181.607409 
L 251.001351 182.222658 
L 251.928935 183.053015 
L 252.856519 184.782655 
L 253.784104 185.422265 
L 254.711688 186.626802 
L 255.639273 187.221918 
L 256.566857 186.249827 
L 257.494442 187.162344 
L 258.422026 191.495543 
L 259.34961 188.616444 
L 260.277195 190.152412 
L 261.204779 190.252064 
L 262.132364 191.543463 
L 263.059948 191.02478 
L 263.987532 193.681216 
L 264.915117 195.612022 
L 265.842701 193.097186 
L 266.770286 193.845201 
L 268.625455 195.658507 
L 269.553039 197.55173 
L 271.408208 198.807337 
L 272.335792 197.63216 
L 273.263377 198.681787 
L 274.190961 199.426598 
L 275.118545 204.419272 
L 276.04613 201.12527 
L 276.973714 202.066721 
L 277.901299 203.315669 
L 278.828883 203.987721 
L 279.756468 203.118963 
L 280.684052 206.423996 
L 281.611636 207.680698 
L 282.539221 209.147123 
L 283.466805 206.255157 
L 285.321974 207.91748 
L 286.249558 209.075303 
L 287.177143 210.605747 
L 288.104727 211.256891 
L 289.032312 212.534462 
L 289.959896 211.12578 
L 290.887481 211.995986 
L 291.815065 212.347459 
L 292.742649 217.682555 
L 293.670234 214.901404 
L 295.525403 216.278226 
L 296.452987 217.438143 
L 297.380571 216.316729 
L 298.308156 216.732765 
L 299.23574 221.808725 
L 300.163325 222.527215 
L 301.090909 219.603104 
L 303.873662 222.17642 
L 305.728831 224.761632 
L 306.656416 226.103161 
L 307.584 224.366304 
L 308.511584 225.38065 
L 309.439169 225.49456 
L 310.366753 225.835839 
L 312.221922 229.006319 
L 314.077091 230.489873 
L 315.004675 229.158455 
L 315.93226 229.552493 
L 316.859844 230.724128 
L 317.787429 236.23148 
L 318.715013 237.221795 
L 319.642597 233.5469 
L 320.570182 233.854197 
L 321.497766 235.397506 
L 322.425351 236.703444 
L 323.352935 235.954381 
L 324.280519 239.007158 
L 325.208104 239.755254 
L 326.135688 241.830275 
L 327.063273 239.206865 
L 327.990857 240.010164 
L 328.918442 239.74744 
L 329.846026 240.545212 
L 330.77361 243.064741 
L 331.701195 244.316099 
L 332.628779 244.541725 
L 333.556364 245.216121 
L 334.483948 243.787747 
L 335.411532 244.960389 
L 336.339117 245.814303 
L 337.266701 251.314251 
L 338.194286 247.493067 
L 339.12187 248.248863 
L 340.049455 250.010641 
L 340.977039 250.557126 
L 341.904623 250.925682 
L 342.832208 250.357518 
L 343.759792 250.682631 
L 344.687377 256.023855 
L 345.614961 256.079402 
L 346.542545 253.642506 
L 347.47013 254.681779 
L 348.397714 255.312899 
L 349.325299 255.061442 
L 350.252883 256.541638 
L 351.180468 258.896538 
L 352.108052 260.454036 
L 353.035636 259.977468 
L 353.963221 261.285933 
L 354.890805 259.967389 
L 355.81839 260.656914 
L 356.745974 260.621761 
L 357.673558 261.340912 
L 358.601143 263.467155 
L 359.528727 265.074537 
L 360.456312 264.439355 
L 362.311481 267.649943 
L 363.239065 265.369353 
L 364.166649 265.598999 
L 365.094234 271.563306 
L 366.021818 273.179007 
L 366.949403 268.945695 
L 367.876987 269.637651 
L 369.732156 271.502212 
L 370.65974 271.635289 
L 371.587325 272.451382 
L 372.514909 276.036941 
L 373.442494 275.584139 
L 374.370078 276.892332 
L 375.297662 275.437034 
L 377.152831 276.287354 
L 379.935584 278.95441 
L 381.790753 282.015683 
L 383.645922 283.112834 
L 384.573506 281.848125 
L 385.501091 282.226145 
L 386.428675 282.777003 
L 387.35626 289.363091 
L 388.283844 286.06542 
L 389.211429 285.663993 
L 390.139013 286.766145 
L 391.066597 288.389619 
L 392.921766 288.91967 
L 393.849351 289.283755 
L 394.776935 293.055764 
L 395.704519 293.321716 
L 396.632104 295.488 
L 397.559688 291.803377 
L 398.487273 292.627421 
L 398.487273 292.627421 
" clip-path="url(#p780f8d400c)" style="fill: none; stroke: #1f77b4; stroke-width: 1.5; stroke-linecap: square"/>
   </g>
   <g id="patch_3">
    <path d="M 57.6 307.584 
L 57.6 41.472 
" style="fill: none; stroke: #000000; stroke-width: 0.8; stroke-linejoin: miter; stroke-linecap: square"/>
   </g>
   <g id="patch_4">
    <path d="M 414.72 307.584 
L 414.72 41.472 
" style="fill: none; stroke: #000000; stroke-width: 0.8; stroke-linejoin: miter; stroke-linecap: square"/>
   </g>
   <g id="patch_5">
    <path d="M 57.6 307.584 
L 414.72 307.584 
" style="fill: none; stroke: #000000; stroke-width: 0.8; stroke-linejoin: miter; stroke-linecap: square"/>
   </g>
   <g id="patch_6">
    <path d="M 57.6 41.472 
L 414.72 41.472 
" style="fill: none; stroke: #000000; stroke-width: 0.8; stroke-linejoin: miter; stroke-linecap: square"/>
   </g>
  </g>
 </g>
 <defs>
  <clipPath id="p780f8d400c">
   <rect x="57.6" y="41.472" width="357.12" height="266.112"/>
  </clipPath>
 </defs>
</svg>
